<?xml version="1.0" standalone="no"?>
<!DOCTYPE svg PUBLIC "-//W3C//DTD SVG 20010904//EN"
 "http://www.w3.org/TR/2001/REC-SVG-20010904/DTD/svg10.dtd">
<svg version="1.0" xmlns="http://www.w3.org/2000/svg"
 width="16.000000pt" height="16.000000pt" viewBox="0 0 16.000000 16.000000"
 preserveAspectRatio="xMidYMid meet">
<metadata>
Created by potrace 1.11, written by Peter Selinger 2001-2013
</metadata>
<g transform="translate(0.000000,16.000000) scale(0.005333,-0.005333)"
fill="#000000" stroke="none">
<path d="M1245 2966 c-66 -12 -163 -37 -215 -55 -161 -55 -402 -192 -414 -235
-3 -11 -11 -16 -19 -13 -19 7 -198 -175 -277 -283 -70 -96 -167 -286 -205
-405 -56 -171 -69 -264 -69 -475 -1 -154 3 -212 18 -275 21 -93 53 -211 65
-240 83 -195 121 -265 218 -394 110 -145 206 -234 367 -341 142 -94 329 -171
499 -206 118 -24 363 -29 494 -11 310 44 610 199 829 429 143 150 240 301 318
496 134 335 132 754 -6 1102 -55 139 -118 247 -226 387 -68 88 -209 226 -224
217 -4 -3 -8 1 -8 8 -1 18 -135 106 -255 166 -276 138 -592 183 -890 128z"/>
</g>
</svg>
